<?xml version="1.0" encoding="UTF-8" ?>
<!DOCTYPE svg PUBLIC "-//W3C//DTD SVG 1.1//EN" "http://www.w3.org/Graphics/SVG/1.1/DTD/svg11.dtd">
<svg width="652pt" height="225pt" viewBox="0 0 652 225" version="1.1" xmlns="http://www.w3.org/2000/svg">
<g id="#ffffffff">
</g>
<g id="#030303ff">
<path fill="#030303" opacity="1.00" d=" M 8.52 4.00 C 17.76 4.00 27.00 4.00 36.23 4.00 C 59.83 36.33 83.41 68.66 107.00 100.99 C 130.11 70.11 153.25 39.25 176.34 8.35 C 177.51 6.94 178.39 5.18 179.87 4.08 C 187.75 3.86 195.65 4.07 203.54 4.00 C 203.65 34.33 203.87 64.67 204.01 95.00 C 206.00 95.00 207.99 95.00 209.99 95.00 C 230.98 64.67 251.97 34.33 272.96 4.00 C 279.65 4.00 286.35 4.00 293.05 4.00 C 317.04 38.49 341.01 72.99 365.00 107.49 C 399.17 82.67 433.32 57.83 467.49 33.00 C 431.33 32.88 395.16 32.63 359.00 32.54 C 359.00 23.03 359.00 13.51 359.00 4.00 C 455.00 4.00 551.00 4.00 647.00 4.00 C 647.00 11.85 647.00 19.69 647.00 27.54 C 613.50 27.54 580.01 27.53 546.52 27.54 C 546.66 35.86 546.85 44.17 547.01 52.48 C 578.52 52.35 610.03 52.15 641.54 51.99 C 641.53 60.17 641.54 68.36 641.53 76.54 C 610.03 76.54 578.52 76.54 547.01 76.54 C 546.85 87.02 546.66 97.50 546.52 107.99 C 579.85 108.15 613.19 108.36 646.52 108.47 C 646.55 115.65 646.53 122.82 646.54 130.00 C 545.91 130.00 445.28 130.00 344.65 130.00 C 322.93 98.51 301.22 67.01 279.50 35.52 C 258.84 67.01 238.16 98.49 217.51 129.99 C 204.16 130.01 190.81 130.00 177.47 130.00 C 177.35 103.67 177.14 77.35 176.98 51.03 C 156.92 77.36 136.84 103.67 116.77 130.00 C 109.59 130.00 102.40 130.00 95.22 130.00 C 76.15 105.34 57.08 80.67 38.00 56.02 C 38.00 80.68 38.00 105.34 38.00 130.00 C 28.17 130.00 18.35 130.00 8.52 130.00 C 8.52 88.00 8.52 46.00 8.52 4.00 M 501.01 43.92 C 474.17 64.46 447.32 84.98 420.49 105.53 C 452.33 105.63 484.16 105.85 516.00 106.01 C 515.96 81.21 516.07 56.41 515.95 31.61 C 511.48 36.31 506.10 39.95 501.01 43.92 Z" />
<path fill="#030303" opacity="1.00" d=" M 3.00 142.00 C 27.01 142.02 51.02 141.95 75.04 142.03 C 84.64 142.33 94.81 148.63 96.79 158.49 C 97.16 162.89 97.12 167.35 96.83 171.75 C 95.04 181.65 84.74 188.47 74.99 188.14 C 81.93 199.52 89.80 210.37 96.43 221.92 C 90.77 222.09 85.11 221.96 79.45 222.00 C 72.86 210.57 65.50 199.60 58.27 188.57 C 44.91 188.57 31.55 188.57 18.18 188.57 C 18.19 199.69 18.17 210.81 18.19 221.93 C 13.13 222.06 8.06 221.98 3.00 222.00 C 3.00 195.33 3.00 168.67 3.00 142.00 M 18.19 155.05 C 18.17 161.86 18.18 168.68 18.19 175.50 C 36.44 175.47 54.69 175.52 72.93 175.48 C 76.62 175.62 80.89 173.59 81.61 169.66 C 81.95 166.62 82.00 163.51 81.54 160.49 C 80.55 156.89 76.64 154.86 73.08 155.07 C 54.79 155.04 36.49 155.09 18.19 155.05 Z" />
<path fill="#030303" opacity="1.00" d=" M 109.00 142.00 C 114.81 142.00 120.61 142.00 126.42 142.00 C 126.44 161.96 126.39 181.92 126.44 201.87 C 126.52 206.59 131.78 209.02 135.92 208.97 C 153.67 209.02 171.43 209.03 189.18 208.96 C 193.58 209.04 198.94 206.07 198.58 201.08 C 198.61 181.39 198.58 161.69 198.59 142.00 C 204.41 142.02 210.24 141.96 216.07 142.04 C 216.04 161.74 216.10 181.43 216.04 201.13 C 216.08 205.36 214.62 209.58 211.77 212.73 C 206.16 219.20 197.33 222.08 188.95 222.01 C 170.96 221.98 152.96 222.01 134.96 222.00 C 126.69 221.85 118.04 218.76 112.72 212.20 C 110.41 209.35 108.91 205.77 109.00 202.07 C 108.99 182.04 109.00 162.02 109.00 142.00 Z" />
<path fill="#030303" opacity="1.00" d=" M 229.00 142.00 C 235.32 142.01 241.63 141.98 247.95 142.02 C 274.04 162.00 299.98 182.20 326.20 202.02 C 326.23 182.02 326.21 162.01 326.21 142.00 C 333.50 142.00 340.80 141.99 348.09 142.01 C 374.31 162.01 400.56 181.97 426.76 201.98 C 426.79 182.01 426.78 162.05 426.77 142.08 C 433.12 141.92 439.47 142.03 445.83 142.00 C 445.83 168.67 445.83 195.33 445.83 222.00 C 439.83 221.96 433.83 222.07 427.83 221.97 C 426.03 222.02 424.83 220.38 423.44 219.49 C 398.37 200.38 373.32 181.23 348.20 162.17 C 347.86 164.40 347.70 166.67 348.15 168.90 C 348.22 172.93 348.34 176.98 347.95 181.00 C 348.49 184.29 347.55 187.61 348.14 190.91 C 348.36 201.22 348.01 211.54 348.26 221.86 C 340.82 222.15 333.36 221.94 325.92 221.99 C 299.83 202.02 273.90 181.86 247.72 162.01 C 247.71 182.01 247.72 202.00 247.72 222.00 C 241.48 222.00 235.24 222.00 229.00 222.00 C 229.00 195.33 229.00 168.67 229.00 142.00 Z" />
<path fill="#030303" opacity="1.00" d=" M 459.01 143.00 C 486.00 143.00 513.00 143.00 539.99 143.00 C 539.99 147.35 539.99 151.71 539.99 156.06 C 518.11 156.07 496.24 156.06 474.36 156.07 C 474.37 162.87 474.36 169.68 474.37 176.49 C 494.37 176.47 514.37 176.54 534.37 176.46 C 534.38 180.84 534.38 185.22 534.37 189.61 C 514.37 189.52 494.37 189.60 474.37 189.57 C 474.36 196.38 474.37 203.19 474.36 210.00 C 496.24 210.01 518.12 210.00 539.99 210.00 C 539.99 214.33 539.99 218.67 539.99 223.00 C 513.00 223.00 486.00 223.00 459.01 223.00 C 459.01 196.33 459.01 169.67 459.01 143.00 Z" />
<path fill="#030303" opacity="1.00" d=" M 553.00 143.00 C 576.68 143.00 600.37 142.99 624.05 143.00 C 632.66 143.01 641.57 147.53 645.46 155.42 C 647.67 159.63 646.86 164.48 647.02 169.03 C 647.73 180.63 635.92 189.61 624.99 189.14 C 631.93 200.52 639.79 211.37 646.43 222.92 C 640.77 223.09 635.11 222.96 629.45 223.00 C 622.86 211.57 615.50 200.60 608.27 189.58 C 594.91 189.57 581.55 189.57 568.18 189.57 C 568.18 200.69 568.17 211.81 568.19 222.93 C 563.13 223.06 558.06 222.98 553.00 223.00 C 553.00 196.33 553.00 169.67 553.00 143.00 M 568.19 156.05 C 568.17 162.86 568.18 169.68 568.19 176.50 C 586.47 176.47 604.75 176.53 623.03 176.47 C 626.66 176.59 630.85 174.57 631.60 170.72 C 631.95 167.68 631.99 164.56 631.55 161.53 C 630.59 157.93 626.68 155.87 623.13 156.07 C 604.82 156.04 586.50 156.09 568.19 156.05 Z" />
</g>
</svg>
